<mxfile>
    <diagram id="MxwKrJ9UxYKWV8-siE7C" name="第 1 页">
        <mxGraphModel dx="788" dy="518" grid="1" gridSize="10" guides="1" tooltips="1" connect="1" arrows="1" fold="1" page="1" pageScale="1" pageWidth="827" pageHeight="1169" math="0" shadow="0">
            <root>
                <mxCell id="0"/>
                <mxCell id="1" parent="0"/>
                <mxCell id="2" value="&lt;font style=&quot;font-size: 15px&quot;&gt;AOP&lt;/font&gt;" style="text;html=1;align=center;verticalAlign=middle;resizable=0;points=[];autosize=1;strokeColor=none;" vertex="1" parent="1">
                    <mxGeometry x="70" y="40" width="50" height="20" as="geometry"/>
                </mxCell>
                <mxCell id="4" value="&lt;font style=&quot;font-size: 15px&quot;&gt;账号和密码&lt;/font&gt;" style="rounded=1;whiteSpace=wrap;html=1;" vertex="1" parent="1">
                    <mxGeometry x="180" y="40" width="120" height="40" as="geometry"/>
                </mxCell>
                <mxCell id="5" value="&lt;font style=&quot;font-size: 15px&quot;&gt;以web登录为例&lt;/font&gt;" style="text;html=1;align=center;verticalAlign=middle;resizable=0;points=[];autosize=1;strokeColor=none;" vertex="1" parent="1">
                    <mxGeometry x="40" y="70" width="120" height="20" as="geometry"/>
                </mxCell>
                <mxCell id="9" value="&lt;font style=&quot;font-size: 15px&quot;&gt;数据库查询&lt;/font&gt;" style="rounded=1;whiteSpace=wrap;html=1;" vertex="1" parent="1">
                    <mxGeometry x="180" y="120" width="120" height="40" as="geometry"/>
                </mxCell>
                <mxCell id="11" value="&lt;font style=&quot;font-size: 15px&quot;&gt;判断匹配&lt;/font&gt;" style="rhombus;whiteSpace=wrap;html=1;" vertex="1" parent="1">
                    <mxGeometry x="180" y="200" width="120" height="70" as="geometry"/>
                </mxCell>
                <mxCell id="12" value="&lt;font style=&quot;font-size: 15px&quot;&gt;跳转主页面&lt;/font&gt;" style="rounded=1;whiteSpace=wrap;html=1;" vertex="1" parent="1">
                    <mxGeometry x="180" y="334" width="120" height="40" as="geometry"/>
                </mxCell>
                <mxCell id="13" value="" style="endArrow=classic;html=1;entryX=0.5;entryY=0;entryDx=0;entryDy=0;exitX=0.5;exitY=1;exitDx=0;exitDy=0;" edge="1" parent="1" source="4" target="9">
                    <mxGeometry width="50" height="50" relative="1" as="geometry">
                        <mxPoint x="363.5" y="140" as="sourcePoint"/>
                        <mxPoint x="413.5" y="90" as="targetPoint"/>
                    </mxGeometry>
                </mxCell>
                <mxCell id="14" value="" style="endArrow=classic;html=1;entryX=0.5;entryY=0;entryDx=0;entryDy=0;exitX=0.5;exitY=1;exitDx=0;exitDy=0;" edge="1" parent="1" source="9" target="11">
                    <mxGeometry width="50" height="50" relative="1" as="geometry">
                        <mxPoint x="250" y="90" as="sourcePoint"/>
                        <mxPoint x="250" y="130" as="targetPoint"/>
                    </mxGeometry>
                </mxCell>
                <mxCell id="15" value="" style="endArrow=classic;html=1;entryX=0.5;entryY=0;entryDx=0;entryDy=0;" edge="1" parent="1" target="12">
                    <mxGeometry width="50" height="50" relative="1" as="geometry">
                        <mxPoint x="240" y="270" as="sourcePoint"/>
                        <mxPoint x="260" y="140" as="targetPoint"/>
                    </mxGeometry>
                </mxCell>
                <mxCell id="17" value="" style="endArrow=classic;html=1;exitX=1;exitY=0.5;exitDx=0;exitDy=0;entryX=1;entryY=0.5;entryDx=0;entryDy=0;" edge="1" parent="1" source="11" target="4">
                    <mxGeometry width="50" height="50" relative="1" as="geometry">
                        <mxPoint x="380" y="240" as="sourcePoint"/>
                        <mxPoint x="430" y="190" as="targetPoint"/>
                        <Array as="points">
                            <mxPoint x="340" y="235"/>
                            <mxPoint x="340" y="150"/>
                            <mxPoint x="340" y="60"/>
                        </Array>
                    </mxGeometry>
                </mxCell>
                <mxCell id="18" value="N" style="text;html=1;align=center;verticalAlign=middle;resizable=0;points=[];autosize=1;strokeColor=none;" vertex="1" parent="1">
                    <mxGeometry x="310" y="210" width="20" height="20" as="geometry"/>
                </mxCell>
                <mxCell id="19" value="Y" style="text;html=1;align=center;verticalAlign=middle;resizable=0;points=[];autosize=1;strokeColor=none;" vertex="1" parent="1">
                    <mxGeometry x="240" y="270" width="20" height="20" as="geometry"/>
                </mxCell>
                <mxCell id="20" value="&lt;font style=&quot;font-size: 15px&quot; color=&quot;#66ffb3&quot;&gt;在登录功能的基础上进一步完善：&lt;br&gt;加上权限判断的功能&lt;/font&gt;" style="text;html=1;align=left;verticalAlign=middle;resizable=0;points=[];autosize=1;strokeColor=none;" vertex="1" parent="1">
                    <mxGeometry x="400" y="140" width="240" height="40" as="geometry"/>
                </mxCell>
                <mxCell id="21" value="&lt;p style=&quot;line-height: 110%&quot;&gt;&lt;/p&gt;&lt;div style=&quot;text-align: left ; font-size: 15px&quot;&gt;&lt;span&gt;&lt;font style=&quot;font-size: 15px&quot; color=&quot;#99ff33&quot;&gt;原始方式：&lt;/font&gt;&lt;/span&gt;&lt;/div&gt;&lt;div style=&quot;text-align: left ; font-size: 15px&quot;&gt;&lt;span&gt;&lt;font style=&quot;font-size: 15px&quot; color=&quot;#99ff33&quot;&gt;在业务逻辑的源代码进行修改，&lt;/font&gt;&lt;/span&gt;&lt;/div&gt;&lt;div style=&quot;text-align: left ; font-size: 15px&quot;&gt;&lt;span&gt;&lt;font style=&quot;font-size: 15px&quot; color=&quot;#99ff33&quot;&gt;使用if...else...进行用户权限的判断&lt;/font&gt;&lt;/span&gt;&lt;/div&gt;&lt;p&gt;&lt;/p&gt;" style="text;html=1;align=center;verticalAlign=middle;resizable=0;points=[];autosize=1;strokeWidth=3;strokeColor=#f0f0f0;" vertex="1" parent="1">
                    <mxGeometry x="395" y="190" width="240" height="70" as="geometry"/>
                </mxCell>
                <mxCell id="22" value="&lt;font style=&quot;font-size: 15px ; line-height: 150%&quot; color=&quot;#ff3333&quot;&gt;AOP思想实现：&lt;br&gt;单独实现一个权限判断的功能模块，&lt;br&gt;通过某种方式配置(横插进去)&lt;br&gt;&lt;/font&gt;" style="text;html=1;align=left;verticalAlign=middle;resizable=0;points=[];autosize=1;strokeColor=#f0f0f0;strokeWidth=4;perimeterSpacing=14;" vertex="1" parent="1">
                    <mxGeometry x="400" y="271" width="260" height="70" as="geometry"/>
                </mxCell>
                <mxCell id="24" value="" style="shape=flexArrow;endArrow=classic;html=1;exitX=0.038;exitY=0.526;exitDx=0;exitDy=0;exitPerimeter=0;fillColor=#1ba1e2;strokeColor=#006EAF;" edge="1" parent="1">
                    <mxGeometry width="50" height="50" relative="1" as="geometry">
                        <mxPoint x="396.94399999999996" y="305.028" as="sourcePoint"/>
                        <mxPoint x="240" y="305" as="targetPoint"/>
                    </mxGeometry>
                </mxCell>
                <mxCell id="26" value="" style="endArrow=classic;html=1;exitX=-0.008;exitY=0.557;exitDx=0;exitDy=0;exitPerimeter=0;" edge="1" parent="1" source="21">
                    <mxGeometry width="50" height="50" relative="1" as="geometry">
                        <mxPoint x="380" y="260" as="sourcePoint"/>
                        <mxPoint x="270" y="260" as="targetPoint"/>
                        <Array as="points">
                            <mxPoint x="350" y="260"/>
                        </Array>
                    </mxGeometry>
                </mxCell>
            </root>
        </mxGraphModel>
    </diagram>
    <diagram id="rHNggGMH3Kh21SH_1HXq" name="第 2 页">
        <mxGraphModel dx="788" dy="518" grid="1" gridSize="10" guides="1" tooltips="1" connect="1" arrows="1" fold="1" page="1" pageScale="1" pageWidth="827" pageHeight="1169" math="0" shadow="0">
            <root>
                <mxCell id="pQehtu8LGlxPZs8t8zNd-0"/>
                <mxCell id="pQehtu8LGlxPZs8t8zNd-1" parent="pQehtu8LGlxPZs8t8zNd-0"/>
                <mxCell id="pQehtu8LGlxPZs8t8zNd-2" value="&lt;font style=&quot;font-size: 15px&quot;&gt;interface UseDao{&lt;br&gt;&amp;nbsp; &amp;nbsp; public void login();&lt;br&gt;}&lt;/font&gt;" style="rounded=0;whiteSpace=wrap;html=1;strokeColor=#f0f0f0;strokeWidth=1;align=left;" vertex="1" parent="pQehtu8LGlxPZs8t8zNd-1">
                    <mxGeometry x="80" y="69" width="150" height="66" as="geometry"/>
                </mxCell>
                <mxCell id="pQehtu8LGlxPZs8t8zNd-3" value="&lt;font style=&quot;font-size: 15px&quot;&gt;class UseDaoImpl implements UserDao{&lt;br&gt;&amp;nbsp; &amp;nbsp; public void login(){&lt;br&gt;&amp;nbsp; &amp;nbsp; &amp;nbsp; ......&lt;br&gt;&amp;nbsp; &amp;nbsp; }&lt;br&gt;}&lt;/font&gt;" style="rounded=0;whiteSpace=wrap;html=1;strokeColor=#f0f0f0;strokeWidth=1;align=left;" vertex="1" parent="pQehtu8LGlxPZs8t8zNd-1">
                    <mxGeometry x="15" y="190" width="280" height="100" as="geometry"/>
                </mxCell>
                <mxCell id="pQehtu8LGlxPZs8t8zNd-4" value="&lt;font style=&quot;font-size: 15px&quot;&gt;创建UserDao接口实现类代理对象&lt;br&gt;增强类的对象&lt;br&gt;代理对象&lt;span class=&quot;hljs-title&quot; style=&quot;margin: 0px ; padding: 0px ; color: rgb(163 , 21 , 21) ; line-height: 1.5 ; font-family: &amp;#34;courier new&amp;#34; , sans-serif ; font-size: 12px ; background-color: rgb(245 , 245 , 245)&quot;&gt;&lt;br&gt;&lt;/span&gt;class Proxy implements UserDao{&lt;br&gt;&amp;nbsp; &amp;nbsp; &amp;nbsp; @override&lt;br&gt;&amp;nbsp; &amp;nbsp; &amp;nbsp; public void login(){&lt;br&gt;&amp;nbsp; &amp;nbsp; &amp;nbsp; &amp;nbsp; &amp;nbsp;.....&lt;br&gt;&amp;nbsp; &amp;nbsp; &amp;nbsp; }&lt;br&gt;&amp;nbsp; &amp;nbsp;&amp;nbsp;&lt;br&gt;&amp;nbsp; &amp;nbsp; &amp;nbsp; public void authority(){&lt;br&gt;&amp;nbsp; &amp;nbsp; &amp;nbsp; &amp;nbsp; &amp;nbsp; ......&lt;br&gt;&amp;nbsp; &amp;nbsp; &amp;nbsp; }&lt;/font&gt;&lt;font&gt;&lt;br&gt;&lt;span style=&quot;font-size: 15px&quot;&gt;}&lt;/span&gt;&lt;br&gt;&lt;/font&gt;" style="rounded=0;whiteSpace=wrap;html=1;strokeColor=#f0f0f0;strokeWidth=1;align=left;" vertex="1" parent="pQehtu8LGlxPZs8t8zNd-1">
                    <mxGeometry x="400" y="20" width="270" height="230" as="geometry"/>
                </mxCell>
                <mxCell id="pQehtu8LGlxPZs8t8zNd-5" value="" style="endArrow=none;html=1;entryX=1;entryY=1;entryDx=0;entryDy=0;exitX=0;exitY=0.5;exitDx=0;exitDy=0;" edge="1" parent="pQehtu8LGlxPZs8t8zNd-1" source="pQehtu8LGlxPZs8t8zNd-4" target="pQehtu8LGlxPZs8t8zNd-2">
                    <mxGeometry width="50" height="50" relative="1" as="geometry">
                        <mxPoint x="380" y="210" as="sourcePoint"/>
                        <mxPoint x="430" y="160" as="targetPoint"/>
                    </mxGeometry>
                </mxCell>
            </root>
        </mxGraphModel>
    </diagram>
    <diagram id="VT9WzRgMU-8TAWlMRoAO" name="第 3 页">
        <mxGraphModel dx="788" dy="518" grid="1" gridSize="10" guides="1" tooltips="1" connect="1" arrows="1" fold="1" page="1" pageScale="1" pageWidth="827" pageHeight="1169" math="0" shadow="0">
            <root>
                <mxCell id="iht0yi0Yv3TRVCbiTUpX-0"/>
                <mxCell id="iht0yi0Yv3TRVCbiTUpX-1" parent="iht0yi0Yv3TRVCbiTUpX-0"/>
                <mxCell id="859noLcL7HjbiSe2LwUK-0" value="&lt;font style=&quot;font-size: 15px&quot;&gt;class User{&lt;br&gt;&amp;nbsp; &amp;nbsp; public void add(){&lt;br&gt;&amp;nbsp; &amp;nbsp; &amp;nbsp; ......&lt;br&gt;&amp;nbsp; &amp;nbsp; }&lt;br&gt;}&lt;/font&gt;" style="rounded=0;whiteSpace=wrap;html=1;strokeColor=#f0f0f0;strokeWidth=1;align=left;" vertex="1" parent="iht0yi0Yv3TRVCbiTUpX-1">
                    <mxGeometry x="20" y="120" width="170" height="100" as="geometry"/>
                </mxCell>
                <mxCell id="859noLcL7HjbiSe2LwUK-1" value="&lt;font style=&quot;font-size: 15px&quot;&gt;class Student extends User{&lt;br&gt;&amp;nbsp; &amp;nbsp; public void add(){&lt;br&gt;&amp;nbsp; &amp;nbsp; &amp;nbsp; &amp;nbsp; &amp;nbsp;super.add();&lt;br&gt;&amp;nbsp; &amp;nbsp; &amp;nbsp; &amp;nbsp; &lt;font color=&quot;#99ff33&quot;&gt;&amp;nbsp;//增强逻辑代码&lt;/font&gt;&lt;br&gt;&amp;nbsp; &amp;nbsp; }&lt;br&gt;}&lt;/font&gt;" style="rounded=0;whiteSpace=wrap;html=1;strokeColor=#f0f0f0;strokeWidth=1;align=left;" vertex="1" parent="iht0yi0Yv3TRVCbiTUpX-1">
                    <mxGeometry x="280" y="40" width="250" height="110" as="geometry"/>
                </mxCell>
                <mxCell id="859noLcL7HjbiSe2LwUK-2" value="&lt;font style=&quot;font-size: 15px&quot;&gt;原始方式&lt;/font&gt;" style="text;html=1;align=center;verticalAlign=middle;resizable=0;points=[];autosize=1;strokeColor=none;" vertex="1" parent="iht0yi0Yv3TRVCbiTUpX-1">
                    <mxGeometry x="270" y="10" width="80" height="20" as="geometry"/>
                </mxCell>
                <mxCell id="859noLcL7HjbiSe2LwUK-3" value="&lt;div style=&quot;text-align: center&quot;&gt;&lt;span style=&quot;font-size: 15px&quot;&gt;&lt;font face=&quot;helvetica&quot;&gt;创建当前类子类的代理对象&lt;/font&gt;&lt;/span&gt;&lt;/div&gt;" style="text;whiteSpace=wrap;html=1;" vertex="1" parent="iht0yi0Yv3TRVCbiTUpX-1">
                    <mxGeometry x="280" y="198" width="260" height="30" as="geometry"/>
                </mxCell>
                <mxCell id="vjtp6X2vTVOjVe2IrRGf-0" value="&lt;font style=&quot;font-size: 15px&quot;&gt;代理对象&lt;/font&gt;" style="rounded=0;whiteSpace=wrap;html=1;strokeColor=#f0f0f0;strokeWidth=1;" vertex="1" parent="iht0yi0Yv3TRVCbiTUpX-1">
                    <mxGeometry x="280" y="230" width="110" height="40" as="geometry"/>
                </mxCell>
                <mxCell id="vjtp6X2vTVOjVe2IrRGf-1" value="" style="endArrow=classic;html=1;exitX=0;exitY=0.5;exitDx=0;exitDy=0;entryX=1;entryY=0.5;entryDx=0;entryDy=0;" edge="1" parent="iht0yi0Yv3TRVCbiTUpX-1" source="vjtp6X2vTVOjVe2IrRGf-0" target="859noLcL7HjbiSe2LwUK-0">
                    <mxGeometry width="50" height="50" relative="1" as="geometry">
                        <mxPoint x="380" y="270" as="sourcePoint"/>
                        <mxPoint x="430" y="220" as="targetPoint"/>
                    </mxGeometry>
                </mxCell>
            </root>
        </mxGraphModel>
    </diagram>
    <diagram id="eqC57guWwSWqzwwFaeNa" name="第 4 页">
        <mxGraphModel dx="1000" dy="518" grid="1" gridSize="10" guides="1" tooltips="1" connect="1" arrows="1" fold="1" page="1" pageScale="1" pageWidth="827" pageHeight="1169" math="0" shadow="0">
            <root>
                <mxCell id="Qu-EivkXQV3qwrYWNpOc-0"/>
                <mxCell id="Qu-EivkXQV3qwrYWNpOc-1" parent="Qu-EivkXQV3qwrYWNpOc-0"/>
                <mxCell id="Qu-EivkXQV3qwrYWNpOc-4" value="&lt;font style=&quot;font-size: 15px&quot;&gt;&lt;font color=&quot;#66ffb3&quot; style=&quot;font-size: 15px&quot;&gt;1、连接点&lt;/font&gt;&lt;br&gt;类里面可以被增强(增加功能的方法)，这些方法被称为【连接点】&lt;br&gt;在User类中add,delete,update,query都是【连接点】&lt;/font&gt;" style="text;html=1;align=left;verticalAlign=middle;resizable=0;points=[];autosize=1;strokeColor=none;" vertex="1" parent="Qu-EivkXQV3qwrYWNpOc-1">
                    <mxGeometry x="387" y="10" width="450" height="50" as="geometry"/>
                </mxCell>
                <mxCell id="Qu-EivkXQV3qwrYWNpOc-5" value="&lt;font style=&quot;font-size: 15px&quot;&gt;&lt;font color=&quot;#66ffb3&quot; style=&quot;font-size: 15px&quot;&gt;2、切入点&lt;/font&gt;&lt;br&gt;在实际编程中真正增强(增加功能的方法)，这些方法称为【切入点】&lt;br&gt;如过实际编程中，只增强了add方法，那么add方法就是【切入点】&lt;/font&gt;" style="text;html=1;align=left;verticalAlign=middle;resizable=0;points=[];autosize=1;strokeColor=none;" vertex="1" parent="Qu-EivkXQV3qwrYWNpOc-1">
                    <mxGeometry x="385" y="78" width="460" height="50" as="geometry"/>
                </mxCell>
                <mxCell id="Qu-EivkXQV3qwrYWNpOc-6" value="&lt;font style=&quot;font-size: 15px&quot;&gt;&lt;font color=&quot;#66ffb3&quot;&gt;3、通知(增强)&lt;/font&gt;&lt;br&gt;实际编写增加功能的代码片段，&lt;br&gt;在add方法中增加日志功能，那么在怎加的日志功能就是【通知】&lt;br&gt;&lt;font color=&quot;#80ff00&quot;&gt;分类：前置通知、后置通知、环绕通知、异常通知、最终通知&lt;/font&gt;&lt;br&gt;&lt;/font&gt;" style="text;html=1;align=left;verticalAlign=middle;resizable=0;points=[];autosize=1;strokeColor=none;" vertex="1" parent="Qu-EivkXQV3qwrYWNpOc-1">
                    <mxGeometry x="384" y="140" width="450" height="70" as="geometry"/>
                </mxCell>
                <mxCell id="Qu-EivkXQV3qwrYWNpOc-7" value="&lt;font style=&quot;font-size: 15px&quot;&gt;&lt;font color=&quot;#66ffb3&quot;&gt;4、切面（是一个动作）&lt;/font&gt;&lt;br&gt;把通知应用到切入点的过程&lt;br&gt;&lt;/font&gt;" style="text;html=1;align=left;verticalAlign=middle;resizable=0;points=[];autosize=1;strokeColor=none;" vertex="1" parent="Qu-EivkXQV3qwrYWNpOc-1">
                    <mxGeometry x="384" y="235" width="200" height="40" as="geometry"/>
                </mxCell>
                <mxCell id="WKyiIrFrO9hQHFK26-XF-15" value="" style="group" vertex="1" connectable="0" parent="Qu-EivkXQV3qwrYWNpOc-1">
                    <mxGeometry x="3" width="480" height="334" as="geometry"/>
                </mxCell>
                <mxCell id="WKyiIrFrO9hQHFK26-XF-0" value="&lt;font style=&quot;font-size: 15px&quot;&gt;账号和密码&lt;/font&gt;" style="rounded=1;whiteSpace=wrap;html=1;" vertex="1" parent="WKyiIrFrO9hQHFK26-XF-15">
                    <mxGeometry width="120" height="40" as="geometry"/>
                </mxCell>
                <mxCell id="WKyiIrFrO9hQHFK26-XF-1" value="&lt;font style=&quot;font-size: 15px&quot;&gt;数据库查询&lt;/font&gt;" style="rounded=1;whiteSpace=wrap;html=1;" vertex="1" parent="WKyiIrFrO9hQHFK26-XF-15">
                    <mxGeometry y="80" width="120" height="40" as="geometry"/>
                </mxCell>
                <mxCell id="WKyiIrFrO9hQHFK26-XF-2" value="&lt;font style=&quot;font-size: 15px&quot;&gt;判断匹配&lt;br&gt;登录&lt;br&gt;&lt;/font&gt;" style="rhombus;whiteSpace=wrap;html=1;" vertex="1" parent="WKyiIrFrO9hQHFK26-XF-15">
                    <mxGeometry y="160" width="120" height="70" as="geometry"/>
                </mxCell>
                <mxCell id="WKyiIrFrO9hQHFK26-XF-3" value="&lt;font style=&quot;font-size: 15px&quot;&gt;跳转主页面&lt;/font&gt;" style="rounded=1;whiteSpace=wrap;html=1;" vertex="1" parent="WKyiIrFrO9hQHFK26-XF-15">
                    <mxGeometry y="294" width="120" height="40" as="geometry"/>
                </mxCell>
                <mxCell id="WKyiIrFrO9hQHFK26-XF-4" value="" style="endArrow=classic;html=1;entryX=0.5;entryY=0;entryDx=0;entryDy=0;exitX=0.5;exitY=1;exitDx=0;exitDy=0;" edge="1" parent="WKyiIrFrO9hQHFK26-XF-15" source="WKyiIrFrO9hQHFK26-XF-0" target="WKyiIrFrO9hQHFK26-XF-1">
                    <mxGeometry width="50" height="50" relative="1" as="geometry">
                        <mxPoint x="183.5" y="100" as="sourcePoint"/>
                        <mxPoint x="233.5" y="50" as="targetPoint"/>
                    </mxGeometry>
                </mxCell>
                <mxCell id="WKyiIrFrO9hQHFK26-XF-5" value="" style="endArrow=classic;html=1;entryX=0.5;entryY=0;entryDx=0;entryDy=0;exitX=0.5;exitY=1;exitDx=0;exitDy=0;" edge="1" parent="WKyiIrFrO9hQHFK26-XF-15" source="WKyiIrFrO9hQHFK26-XF-1" target="WKyiIrFrO9hQHFK26-XF-2">
                    <mxGeometry width="50" height="50" relative="1" as="geometry">
                        <mxPoint x="70" y="50" as="sourcePoint"/>
                        <mxPoint x="70" y="90" as="targetPoint"/>
                    </mxGeometry>
                </mxCell>
                <mxCell id="WKyiIrFrO9hQHFK26-XF-6" value="" style="endArrow=classic;html=1;entryX=0.5;entryY=0;entryDx=0;entryDy=0;" edge="1" parent="WKyiIrFrO9hQHFK26-XF-15" target="WKyiIrFrO9hQHFK26-XF-3">
                    <mxGeometry width="50" height="50" relative="1" as="geometry">
                        <mxPoint x="60" y="230" as="sourcePoint"/>
                        <mxPoint x="80" y="100" as="targetPoint"/>
                    </mxGeometry>
                </mxCell>
                <mxCell id="WKyiIrFrO9hQHFK26-XF-7" value="" style="endArrow=classic;html=1;exitX=1;exitY=0.5;exitDx=0;exitDy=0;entryX=1;entryY=0.5;entryDx=0;entryDy=0;" edge="1" parent="WKyiIrFrO9hQHFK26-XF-15" source="WKyiIrFrO9hQHFK26-XF-2" target="WKyiIrFrO9hQHFK26-XF-0">
                    <mxGeometry width="50" height="50" relative="1" as="geometry">
                        <mxPoint x="200" y="200" as="sourcePoint"/>
                        <mxPoint x="250" y="150" as="targetPoint"/>
                        <Array as="points">
                            <mxPoint x="160" y="195"/>
                            <mxPoint x="160" y="110"/>
                            <mxPoint x="160" y="20"/>
                        </Array>
                    </mxGeometry>
                </mxCell>
                <mxCell id="WKyiIrFrO9hQHFK26-XF-8" value="N" style="text;html=1;align=center;verticalAlign=middle;resizable=0;points=[];autosize=1;strokeColor=none;" vertex="1" parent="WKyiIrFrO9hQHFK26-XF-15">
                    <mxGeometry x="130" y="170" width="20" height="20" as="geometry"/>
                </mxCell>
                <mxCell id="WKyiIrFrO9hQHFK26-XF-9" value="Y" style="text;html=1;align=center;verticalAlign=middle;resizable=0;points=[];autosize=1;strokeColor=none;" vertex="1" parent="WKyiIrFrO9hQHFK26-XF-15">
                    <mxGeometry x="60" y="230" width="20" height="20" as="geometry"/>
                </mxCell>
                <mxCell id="WKyiIrFrO9hQHFK26-XF-13" value="" style="shape=flexArrow;endArrow=classic;html=1;fillColor=#1ba1e2;strokeColor=#006EAF;" edge="1" parent="WKyiIrFrO9hQHFK26-XF-15">
                    <mxGeometry width="50" height="50" relative="1" as="geometry">
                        <mxPoint x="300" y="310" as="sourcePoint"/>
                        <mxPoint x="60" y="265" as="targetPoint"/>
                        <Array as="points">
                            <mxPoint x="300" y="265"/>
                        </Array>
                    </mxGeometry>
                </mxCell>
                <mxCell id="WKyiIrFrO9hQHFK26-XF-12" value="&lt;font style=&quot;font-size: 15px ; line-height: 150%&quot; color=&quot;#ff3333&quot;&gt;AOP思想实现：&lt;br&gt;单独实现一个权限判断的功能模块，&lt;br&gt;通过某种方式配置(横插进去)&lt;br&gt;&lt;/font&gt;" style="text;html=1;align=left;verticalAlign=middle;resizable=0;points=[];autosize=1;strokeColor=#f0f0f0;strokeWidth=4;perimeterSpacing=14;" vertex="1" parent="Qu-EivkXQV3qwrYWNpOc-1">
                    <mxGeometry x="177" y="310" width="260" height="70" as="geometry"/>
                </mxCell>
                <mxCell id="WKyiIrFrO9hQHFK26-XF-16" value="" style="endArrow=classic;html=1;exitX=-0.007;exitY=0.52;exitDx=0;exitDy=0;exitPerimeter=0;fillColor=#e51400;strokeColor=#B20000;strokeWidth=3;" edge="1" parent="Qu-EivkXQV3qwrYWNpOc-1" source="Qu-EivkXQV3qwrYWNpOc-4">
                    <mxGeometry width="50" height="50" relative="1" as="geometry">
                        <mxPoint x="263" y="220" as="sourcePoint"/>
                        <mxPoint x="93" y="170" as="targetPoint"/>
                        <Array as="points"/>
                    </mxGeometry>
                </mxCell>
                <mxCell id="WKyiIrFrO9hQHFK26-XF-17" value="" style="endArrow=classic;html=1;strokeWidth=3;exitX=0;exitY=0.42;exitDx=0;exitDy=0;exitPerimeter=0;fillColor=#e3c800;strokeColor=#B09500;" edge="1" parent="Qu-EivkXQV3qwrYWNpOc-1" source="Qu-EivkXQV3qwrYWNpOc-5">
                    <mxGeometry width="50" height="50" relative="1" as="geometry">
                        <mxPoint x="385.8600000000001" y="112" as="sourcePoint"/>
                        <mxPoint x="113" y="180" as="targetPoint"/>
                    </mxGeometry>
                </mxCell>
                <mxCell id="WKyiIrFrO9hQHFK26-XF-19" value="" style="endArrow=classic;html=1;strokeWidth=3;" edge="1" parent="Qu-EivkXQV3qwrYWNpOc-1">
                    <mxGeometry width="50" height="50" relative="1" as="geometry">
                        <mxPoint x="383" y="180" as="sourcePoint"/>
                        <mxPoint x="340" y="308" as="targetPoint"/>
                        <Array as="points">
                            <mxPoint x="340" y="180"/>
                        </Array>
                    </mxGeometry>
                </mxCell>
                <mxCell id="WKyiIrFrO9hQHFK26-XF-20" value="" style="endArrow=classic;html=1;strokeWidth=3;fillColor=#b1ddf0;strokeColor=#10739e;" edge="1" parent="Qu-EivkXQV3qwrYWNpOc-1" source="Qu-EivkXQV3qwrYWNpOc-7">
                    <mxGeometry width="50" height="50" relative="1" as="geometry">
                        <mxPoint x="203" y="250" as="sourcePoint"/>
                        <mxPoint x="213" y="255" as="targetPoint"/>
                        <Array as="points">
                            <mxPoint x="303" y="220"/>
                            <mxPoint x="213" y="236"/>
                        </Array>
                    </mxGeometry>
                </mxCell>
            </root>
        </mxGraphModel>
    </diagram>
</mxfile>